<svg width="21" height="23" viewBox="0 0 21 23" fill="none" xmlns="http://www.w3.org/2000/svg">
<path d="M15.8387 17.2C18.1357 15.6943 19.6429 13.189 19.6429 10.3457C19.6429 5.73663 15.6932 2 10.8214 2C5.94962 2 2 5.73663 2 10.3457C2 13.189 3.5072 15.6943 5.80412 17.2M7.25332 13.4C6.42909 12.5925 5.92063 11.5082 5.92063 10.313C5.92063 7.82075 8.11502 5.8 10.8214 5.8C13.5278 5.8 15.7222 7.82075 15.7222 10.313C15.7222 11.509 15.2138 12.5925 14.3895 13.4M10.8214 21C9.73877 21 8.86111 20.1493 8.86111 19.1V17.2C8.86111 16.1507 9.73877 15.3 10.8214 15.3C11.9041 15.3 12.7817 16.1507 12.7817 17.2V19.1C12.7817 20.1493 11.9041 21 10.8214 21ZM11.8016 10.55C11.8016 11.0747 11.3628 11.5 10.8214 11.5C10.2801 11.5 9.84127 11.0747 9.84127 10.55C9.84127 10.0253 10.2801 9.6 10.8214 9.6C11.3628 9.6 11.8016 10.0253 11.8016 10.55Z" stroke="#00397F" stroke-width="2.03571" stroke-linecap="round" stroke-linejoin="round"/>
</svg>
